<mxfile host="app.diagrams.net" modified="2023-04-08T11:18:10.974Z" agent="Mozilla/5.0 (Windows NT 10.0; Win64; x64) AppleWebKit/537.36 (KHTML, like Gecko) Chrome/111.0.0.0 Safari/537.36" etag="oruLKKHFGXCHxmqkXijQ" version="21.1.4" type="github">
  <diagram name="第 1 页" id="l8ISgtYWjd_UT5Ml9CKi">
    <mxGraphModel dx="1500" dy="691" grid="1" gridSize="10" guides="1" tooltips="1" connect="1" arrows="1" fold="1" page="1" pageScale="1" pageWidth="827" pageHeight="1169" math="0" shadow="0">
      <root>
        <mxCell id="0" />
        <mxCell id="1" parent="0" />
        <mxCell id="kG98wQC3ThlBADJvCCro-1" value="数据库" style="swimlane;whiteSpace=wrap;strokeColor=#000000;fontSize=16;startSize=23;" parent="1" vertex="1">
          <mxGeometry x="389" y="120" width="200" height="450" as="geometry" />
        </mxCell>
        <mxCell id="kG98wQC3ThlBADJvCCro-2" value="" style="ellipse;shape=startState;fillColor=#000000;strokeColor=#000000;fontSize=16;" parent="kG98wQC3ThlBADJvCCro-1" vertex="1">
          <mxGeometry x="96" y="40" width="30" height="30" as="geometry" />
        </mxCell>
        <mxCell id="kG98wQC3ThlBADJvCCro-3" value="" style="edgeStyle=elbowEdgeStyle;elbow=horizontal;verticalAlign=bottom;endArrow=open;endSize=8;strokeColor=#000000;endFill=1;rounded=0;fontSize=16;" parent="kG98wQC3ThlBADJvCCro-1" source="kG98wQC3ThlBADJvCCro-2" edge="1">
          <mxGeometry x="96" y="40" as="geometry">
            <mxPoint x="111" y="111" as="targetPoint" />
          </mxGeometry>
        </mxCell>
        <mxCell id="kG98wQC3ThlBADJvCCro-4" value="等待异常设备&#xa;信息到达" style="strokeColor=#000000;fontSize=16;" parent="kG98wQC3ThlBADJvCCro-1" vertex="1">
          <mxGeometry x="57" y="111" width="110" height="40" as="geometry" />
        </mxCell>
        <mxCell id="kG98wQC3ThlBADJvCCro-5" style="edgeStyle=orthogonalEdgeStyle;rounded=0;orthogonalLoop=1;jettySize=auto;html=1;exitX=0.5;exitY=1;exitDx=0;exitDy=0;strokeColor=#000000;fontSize=14;endArrow=open;endFill=0;endSize=8;" parent="kG98wQC3ThlBADJvCCro-1" source="kG98wQC3ThlBADJvCCro-6" edge="1">
          <mxGeometry relative="1" as="geometry">
            <mxPoint x="112.5" y="277" as="targetPoint" />
          </mxGeometry>
        </mxCell>
        <mxCell id="kG98wQC3ThlBADJvCCro-6" value="发布新信息" style="strokeColor=#000000;fontSize=16;" parent="kG98wQC3ThlBADJvCCro-1" vertex="1">
          <mxGeometry x="57" y="194" width="110" height="45" as="geometry" />
        </mxCell>
        <mxCell id="kG98wQC3ThlBADJvCCro-7" value="" style="edgeStyle=elbowEdgeStyle;elbow=horizontal;align=left;verticalAlign=top;endArrow=open;endSize=8;strokeColor=#000000;endFill=1;rounded=0;exitX=0.5;exitY=1;exitDx=0;exitDy=0;entryX=0.5;entryY=0;entryDx=0;entryDy=0;fontSize=16;" parent="kG98wQC3ThlBADJvCCro-1" source="kG98wQC3ThlBADJvCCro-4" target="kG98wQC3ThlBADJvCCro-6" edge="1">
          <mxGeometry x="-1" relative="1" as="geometry">
            <mxPoint x="-67.5" y="342" as="targetPoint" />
            <mxPoint x="112" y="230" as="sourcePoint" />
          </mxGeometry>
        </mxCell>
        <mxCell id="kG98wQC3ThlBADJvCCro-8" value="" style="whiteSpace=wrap;strokeColor=#000000;fillColor=#000000;rotation=90;" parent="kG98wQC3ThlBADJvCCro-1" vertex="1">
          <mxGeometry x="109.5" y="257" width="5" height="45" as="geometry" />
        </mxCell>
        <mxCell id="kG98wQC3ThlBADJvCCro-9" style="edgeStyle=orthogonalEdgeStyle;rounded=0;orthogonalLoop=1;jettySize=auto;html=1;exitX=1;exitY=0.75;exitDx=0;exitDy=0;strokeColor=#000000;fontSize=14;endArrow=open;endFill=0;endSize=8;entryX=0;entryY=0.5;entryDx=0;entryDy=0;" parent="kG98wQC3ThlBADJvCCro-1" source="kG98wQC3ThlBADJvCCro-8" target="kG98wQC3ThlBADJvCCro-4" edge="1">
          <mxGeometry relative="1" as="geometry">
            <mxPoint x="28.5" y="119.75" as="targetPoint" />
            <Array as="points">
              <mxPoint x="101" y="310" />
              <mxPoint x="26" y="310" />
              <mxPoint x="26" y="131" />
            </Array>
          </mxGeometry>
        </mxCell>
        <mxCell id="kG98wQC3ThlBADJvCCro-10" value="设备监测与报警" style="swimlane;whiteSpace=wrap;strokeColor=#000000;fontSize=16;" parent="1" vertex="1">
          <mxGeometry x="590" y="120" width="270" height="450" as="geometry" />
        </mxCell>
        <mxCell id="kG98wQC3ThlBADJvCCro-11" value="`" style="ellipse;shape=startState;fillColor=#000000;strokeColor=#000000;fontSize=16;" parent="kG98wQC3ThlBADJvCCro-10" vertex="1">
          <mxGeometry x="117" y="40" width="29" height="30" as="geometry" />
        </mxCell>
        <mxCell id="kG98wQC3ThlBADJvCCro-12" value="" style="edgeStyle=elbowEdgeStyle;elbow=horizontal;verticalAlign=bottom;endArrow=open;endSize=8;strokeColor=#000000;endFill=1;rounded=0;fontSize=16;" parent="kG98wQC3ThlBADJvCCro-10" target="kG98wQC3ThlBADJvCCro-13" edge="1">
          <mxGeometry x="98" y="20" as="geometry">
            <mxPoint x="113" y="90" as="targetPoint" />
            <mxPoint x="133" y="70" as="sourcePoint" />
          </mxGeometry>
        </mxCell>
        <mxCell id="kG98wQC3ThlBADJvCCro-13" value="订阅数据库" style="strokeColor=#000000;fontSize=16;" parent="kG98wQC3ThlBADJvCCro-10" vertex="1">
          <mxGeometry x="77" y="108" width="109" height="40" as="geometry" />
        </mxCell>
        <mxCell id="kG98wQC3ThlBADJvCCro-14" style="edgeStyle=elbowEdgeStyle;rounded=0;orthogonalLoop=1;jettySize=auto;html=1;exitX=0.5;exitY=1;exitDx=0;exitDy=0;strokeColor=#000000;fontSize=16;endArrow=open;endFill=0;endSize=8;entryX=0.5;entryY=0;entryDx=0;entryDy=0;" parent="kG98wQC3ThlBADJvCCro-10" source="kG98wQC3ThlBADJvCCro-15" target="kG98wQC3ThlBADJvCCro-33" edge="1">
          <mxGeometry relative="1" as="geometry">
            <mxPoint x="133.5" y="310" as="targetPoint" />
          </mxGeometry>
        </mxCell>
        <mxCell id="kG98wQC3ThlBADJvCCro-15" value="等待新的异常&#xa;设备信息" style="strokeColor=#000000;fontSize=16;" parent="kG98wQC3ThlBADJvCCro-10" vertex="1">
          <mxGeometry x="77" y="173" width="109" height="39" as="geometry" />
        </mxCell>
        <mxCell id="kG98wQC3ThlBADJvCCro-16" value="" style="edgeStyle=elbowEdgeStyle;elbow=horizontal;align=left;verticalAlign=top;endArrow=open;endSize=8;strokeColor=#000000;endFill=1;rounded=0;exitX=0.5;exitY=1;exitDx=0;exitDy=0;entryX=0.5;entryY=0;entryDx=0;entryDy=0;fontSize=16;" parent="kG98wQC3ThlBADJvCCro-10" source="kG98wQC3ThlBADJvCCro-13" target="kG98wQC3ThlBADJvCCro-15" edge="1">
          <mxGeometry x="-1" relative="1" as="geometry">
            <mxPoint x="493.5" y="170" as="targetPoint" />
            <mxPoint x="133" y="225" as="sourcePoint" />
          </mxGeometry>
        </mxCell>
        <mxCell id="9AJGbMZkoZJD7rtESFJp-3" style="edgeStyle=orthogonalEdgeStyle;rounded=0;orthogonalLoop=1;jettySize=auto;html=1;exitX=0.5;exitY=1;exitDx=0;exitDy=0;endArrow=open;endFill=0;endSize=8;" edge="1" parent="kG98wQC3ThlBADJvCCro-10" source="kG98wQC3ThlBADJvCCro-33" target="9AJGbMZkoZJD7rtESFJp-2">
          <mxGeometry relative="1" as="geometry" />
        </mxCell>
        <mxCell id="kG98wQC3ThlBADJvCCro-33" value="存入数据库" style="strokeColor=#000000;fontSize=16;" parent="kG98wQC3ThlBADJvCCro-10" vertex="1">
          <mxGeometry x="77" y="245" width="109" height="35" as="geometry" />
        </mxCell>
        <mxCell id="9AJGbMZkoZJD7rtESFJp-5" style="edgeStyle=orthogonalEdgeStyle;shape=connector;rounded=0;orthogonalLoop=1;jettySize=auto;html=1;exitX=0.5;exitY=1;exitDx=0;exitDy=0;entryX=0;entryY=0.5;entryDx=0;entryDy=0;labelBackgroundColor=default;strokeColor=default;fontFamily=Helvetica;fontSize=11;fontColor=default;endArrow=open;endFill=0;endSize=8;" edge="1" parent="kG98wQC3ThlBADJvCCro-10" source="9AJGbMZkoZJD7rtESFJp-2" target="9AJGbMZkoZJD7rtESFJp-4">
          <mxGeometry relative="1" as="geometry" />
        </mxCell>
        <mxCell id="9AJGbMZkoZJD7rtESFJp-2" value="推送异常&#xa;设备信息" style="strokeColor=#000000;fontSize=16;" vertex="1" parent="kG98wQC3ThlBADJvCCro-10">
          <mxGeometry x="77" y="315" width="109" height="35" as="geometry" />
        </mxCell>
        <mxCell id="9AJGbMZkoZJD7rtESFJp-6" style="edgeStyle=orthogonalEdgeStyle;shape=connector;rounded=0;orthogonalLoop=1;jettySize=auto;html=1;entryX=1;entryY=0.5;entryDx=0;entryDy=0;labelBackgroundColor=default;strokeColor=default;fontFamily=Helvetica;fontSize=11;fontColor=default;endArrow=open;endFill=0;endSize=8;exitX=1;exitY=0.25;exitDx=0;exitDy=0;" edge="1" parent="kG98wQC3ThlBADJvCCro-10" source="9AJGbMZkoZJD7rtESFJp-4" target="kG98wQC3ThlBADJvCCro-15">
          <mxGeometry relative="1" as="geometry">
            <mxPoint x="138" y="390" as="sourcePoint" />
            <Array as="points">
              <mxPoint x="143" y="409" />
              <mxPoint x="218" y="409" />
              <mxPoint x="218" y="193" />
            </Array>
          </mxGeometry>
        </mxCell>
        <mxCell id="9AJGbMZkoZJD7rtESFJp-4" value="" style="whiteSpace=wrap;strokeColor=#000000;fillColor=#000000;rotation=90;" vertex="1" parent="kG98wQC3ThlBADJvCCro-10">
          <mxGeometry x="129.5" y="364" width="4" height="45" as="geometry" />
        </mxCell>
        <mxCell id="kG98wQC3ThlBADJvCCro-56" style="edgeStyle=orthogonalEdgeStyle;rounded=0;orthogonalLoop=1;jettySize=auto;html=1;exitX=1;exitY=0.25;exitDx=0;exitDy=0;entryX=0;entryY=0.5;entryDx=0;entryDy=0;endArrow=open;endFill=0;endSize=8;" parent="1" source="kG98wQC3ThlBADJvCCro-8" target="kG98wQC3ThlBADJvCCro-15" edge="1">
          <mxGeometry relative="1" as="geometry">
            <Array as="points">
              <mxPoint x="512" y="430" />
              <mxPoint x="610" y="430" />
              <mxPoint x="610" y="312" />
            </Array>
          </mxGeometry>
        </mxCell>
        <mxCell id="9AJGbMZkoZJD7rtESFJp-7" value="客户端" style="swimlane;whiteSpace=wrap;strokeColor=#000000;fontSize=16;startSize=23;" vertex="1" parent="1">
          <mxGeometry x="859" y="120" width="190" height="450" as="geometry" />
        </mxCell>
        <mxCell id="9AJGbMZkoZJD7rtESFJp-8" value="" style="ellipse;shape=startState;fillColor=#000000;strokeColor=#000000;fontSize=16;" vertex="1" parent="9AJGbMZkoZJD7rtESFJp-7">
          <mxGeometry x="80" y="40" width="30" height="30" as="geometry" />
        </mxCell>
        <mxCell id="9AJGbMZkoZJD7rtESFJp-9" value="" style="edgeStyle=elbowEdgeStyle;elbow=horizontal;verticalAlign=bottom;endArrow=open;endSize=8;strokeColor=#000000;endFill=1;rounded=0;fontSize=16;" edge="1" parent="9AJGbMZkoZJD7rtESFJp-7" source="9AJGbMZkoZJD7rtESFJp-8">
          <mxGeometry x="80" y="40" as="geometry">
            <mxPoint x="95" y="111" as="targetPoint" />
          </mxGeometry>
        </mxCell>
        <mxCell id="9AJGbMZkoZJD7rtESFJp-10" value="登录系统" style="strokeColor=#000000;fontSize=16;" vertex="1" parent="9AJGbMZkoZJD7rtESFJp-7">
          <mxGeometry x="41" y="111" width="110" height="40" as="geometry" />
        </mxCell>
        <mxCell id="9AJGbMZkoZJD7rtESFJp-12" value="监测设备状态" style="strokeColor=#000000;fontSize=16;" vertex="1" parent="9AJGbMZkoZJD7rtESFJp-7">
          <mxGeometry x="41" y="194" width="110" height="45" as="geometry" />
        </mxCell>
        <mxCell id="9AJGbMZkoZJD7rtESFJp-13" value="" style="edgeStyle=elbowEdgeStyle;elbow=horizontal;align=left;verticalAlign=top;endArrow=open;endSize=8;strokeColor=#000000;endFill=1;rounded=0;exitX=0.5;exitY=1;exitDx=0;exitDy=0;entryX=0.5;entryY=0;entryDx=0;entryDy=0;fontSize=16;" edge="1" parent="9AJGbMZkoZJD7rtESFJp-7" source="9AJGbMZkoZJD7rtESFJp-10" target="9AJGbMZkoZJD7rtESFJp-12">
          <mxGeometry x="-1" relative="1" as="geometry">
            <mxPoint x="-83.5" y="342" as="targetPoint" />
            <mxPoint x="96" y="230" as="sourcePoint" />
          </mxGeometry>
        </mxCell>
        <mxCell id="9AJGbMZkoZJD7rtESFJp-16" style="edgeStyle=orthogonalEdgeStyle;shape=connector;rounded=0;orthogonalLoop=1;jettySize=auto;html=1;exitX=1;exitY=0.75;exitDx=0;exitDy=0;entryX=0;entryY=0.5;entryDx=0;entryDy=0;labelBackgroundColor=default;strokeColor=default;fontFamily=Helvetica;fontSize=11;fontColor=default;endArrow=open;endFill=0;endSize=8;" edge="1" parent="1" source="9AJGbMZkoZJD7rtESFJp-4" target="9AJGbMZkoZJD7rtESFJp-12">
          <mxGeometry relative="1" as="geometry">
            <Array as="points">
              <mxPoint x="710" y="540" />
              <mxPoint x="840" y="540" />
              <mxPoint x="840" y="337" />
            </Array>
          </mxGeometry>
        </mxCell>
      </root>
    </mxGraphModel>
  </diagram>
</mxfile>
